{"accessors" : [{"bufferView" : 0, "byteOffset" : 0, "componentType" : 5123, "count" : 204, "type" : "SCALAR", "max" : [193], "min" : [0]}, {"bufferView" : 1, "byteOffset" : 0, "componentType" : 5126, "count" : 194, "type" : "VEC3", "max" : [0.4000000059604645, 0.5, -0.800000011920929], "min" : [-0.4000000059604645, -0.20000000298023224, -1.2999999523162842], "name" : "POSITION"}, {"bufferView" : 1, "byteOffset" : 12, "componentType" : 5126, "count" : 194, "type" : "VEC3", "max" : [1.0000044107437134, 1.0000044107437134, 1.0000044107437134], "min" : [-1.0000044107437134, -1.0000044107437134, -1.0000044107437134], "name" : "NORMAL"}, {"bufferView" : 1, "byteOffset" : 24, "componentType" : 5126, "count" : 194, "type" : "VEC2", "max" : [0.5292969942092896, 0.5], "min" : [0.40820300579071045, 0.5], "name" : "TEXCOORD_0"}, {"bufferView" : 0, "byteOffset" : 408, "componentType" : 5123, "count" : 72, "type" : "SCALAR", "max" : [71], "min" : [0]}, {"bufferView" : 2, "byteOffset" : 0, "componentType" : 5126, "count" : 72, "type" : "VEC3", "max" : [-0.10000000149011612, 0.4000000059604645, -0], "min" : [-0.30000001192092896, 0, -0.30000001192092896], "name" : "POSITION"}, {"bufferView" : 2, "byteOffset" : 12, "componentType" : 5126, "count" : 72, "type" : "VEC3", "max" : [1.0000044107437134, 1.0000044107437134, 1.0000044107437134], "min" : [-1.0000044107437134, -1.0000044107437134, -1.0000044107437134], "name" : "NORMAL"}, {"bufferView" : 2, "byteOffset" : 24, "componentType" : 5126, "count" : 72, "type" : "VEC2", "max" : [0.41210898756980896, 0.5], "min" : [0.40820300579071045, 0.5], "name" : "TEXCOORD_0"}, {"bufferView" : 0, "byteOffset" : 552, "componentType" : 5123, "count" : 96, "type" : "SCALAR", "max" : [95], "min" : [0]}, {"bufferView" : 3, "byteOffset" : 0, "componentType" : 5126, "count" : 96, "type" : "VEC3", "max" : [-0.30000001192092896, 0.5, -0.30000001192092896], "min" : [-0.5, 0, -0.699999988079071], "name" : "POSITION"}, {"bufferView" : 3, "byteOffset" : 12, "componentType" : 5126, "count" : 96, "type" : "VEC3", "max" : [1.0000044107437134, 1.0000044107437134, 1.0000044107437134], "min" : [-1.0000044107437134, -1.0000044107437134, -1.0000044107437134], "name" : "NORMAL"}, {"bufferView" : 3, "byteOffset" : 24, "componentType" : 5126, "count" : 96, "type" : "VEC2", "max" : [0.5292969942092896, 0.5], "min" : [0.40820300579071045, 0.5], "name" : "TEXCOORD_0"}, {"bufferView" : 0, "byteOffset" : 744, "componentType" : 5123, "count" : 72, "type" : "SCALAR", "max" : [71], "min" : [0]}, {"bufferView" : 4, "byteOffset" : 0, "componentType" : 5126, "count" : 72, "type" : "VEC3", "max" : [0.30000001192092896, 0.4000000059604645, -0], "min" : [0.10000000149011612, 0, -0.30000001192092896], "name" : "POSITION"}, {"bufferView" : 4, "byteOffset" : 12, "componentType" : 5126, "count" : 72, "type" : "VEC3", "max" : [1.0000044107437134, 1.0000044107437134, 1.0000044107437134], "min" : [-1.0000044107437134, -1.0000044107437134, -1.0000044107437134], "name" : "NORMAL"}, {"bufferView" : 4, "byteOffset" : 24, "componentType" : 5126, "count" : 72, "type" : "VEC2", "max" : [0.41210898756980896, 0.5], "min" : [0.40820300579071045, 0.5], "name" : "TEXCOORD_0"}, {"bufferView" : 0, "byteOffset" : 888, "componentType" : 5123, "count" : 96, "type" : "SCALAR", "max" : [95], "min" : [0]}, {"bufferView" : 5, "byteOffset" : 0, "componentType" : 5126, "count" : 96, "type" : "VEC3", "max" : [0.5, 0.5, -0.30000001192092896], "min" : [0.30000001192092896, 0, -0.699999988079071], "name" : "POSITION"}, {"bufferView" : 5, "byteOffset" : 12, "componentType" : 5126, "count" : 96, "type" : "VEC3", "max" : [1.0000044107437134, 1.0000044107437134, 1.0000044107437134], "min" : [-1.0000044107437134, -1.0000044107437134, -1.0000044107437134], "name" : "NORMAL"}, {"bufferView" : 5, "byteOffset" : 24, "componentType" : 5126, "count" : 96, "type" : "VEC2", "max" : [0.5292969942092896, 0.5], "min" : [0.40820300579071045, 0.5], "name" : "TEXCOORD_0"}, {"bufferView" : 0, "byteOffset" : 1080, "componentType" : 5123, "count" : 570, "type" : "SCALAR", "max" : [547], "min" : [0]}, {"bufferView" : 6, "byteOffset" : 0, "componentType" : 5126, "count" : 548, "type" : "VEC3", "max" : [0.30000001192092896, 0.4000000059604645, -0.30000001192092896], "min" : [-0.30000001192092896, -0.5, -1.7000000476837158], "name" : "POSITION"}, {"bufferView" : 6, "byteOffset" : 12, "componentType" : 5126, "count" : 548, "type" : "VEC3", "max" : [1.0000044107437134, 1.0000044107437134, 1.0000044107437134], "min" : [-1.0000044107437134, -1.0000044107437134, -1.0000044107437134], "name" : "NORMAL"}, {"bufferView" : 6, "byteOffset" : 24, "componentType" : 5126, "count" : 548, "type" : "VEC2", "max" : [0.5292969942092896, 0.5], "min" : [0.40820300579071045, 0.5], "name" : "TEXCOORD_0"}], "asset" : {"generator" : "Aspose.3D 22.1", "version" : "2.0"}, "buffers" : [{"uri" : "data:application/octet-stream;base64,", "byteLength" : 37768}], "bufferViews" : [{"buffer" : 0, "byteOffset" : 0, "byteLength" : 2220, "target" : 34963}, {"buffer" : 0, "byteOffset" : 2224, "byteLength" : 6528, "byteStride" : 32, "target" : 34962}, {"buffer" : 0, "byteOffset" : 8756, "byteLength" : 2304, "byteStride" : 32, "target" : 34962}, {"buffer" : 0, "byteOffset" : 11064, "byteLength" : 3072, "byteStride" : 32, "target" : 34962}, {"buffer" : 0, "byteOffset" : 14140, "byteLength" : 2304, "byteStride" : 32, "target" : 34962}, {"buffer" : 0, "byteOffset" : 16448, "byteLength" : 3072, "byteStride" : 32, "target" : 34962}, {"buffer" : 0, "byteOffset" : 19524, "byteLength" : 18240, "byteStride" : 32, "target" : 34962}], "images" : [{"uri" : "data:image/png;base64,"}], "materials" : [{"name" : "palette", "pbrMetallicRoughness" : {"baseColorFactor" : [1, 1, 1, 1], "baseColorTexture" : {"index" : 0, "texCoord" : 0}, "metallicFactor" : 0, "roughnessFactor" : 1}, "emissiveFactor" : [0, 0, 0], "alphaMode" : "OPAQUE", "doubleSided" : true}, {"name" : "palette", "pbrMetallicRoughness" : {"baseColorFactor" : [1, 1, 1, 1], "baseColorTexture" : {"index" : 0, "texCoord" : 0}, "metallicFactor" : 0, "roughnessFactor" : 1}, "emissiveFactor" : [0, 0, 0], "alphaMode" : "OPAQUE", "doubleSided" : true}, {"name" : "palette", "pbrMetallicRoughness" : {"baseColorFactor" : [1, 1, 1, 1], "baseColorTexture" : {"index" : 0, "texCoord" : 0}, "metallicFactor" : 0, "roughnessFactor" : 1}, "emissiveFactor" : [0, 0, 0], "alphaMode" : "OPAQUE", "doubleSided" : true}, {"name" : "palette", "pbrMetallicRoughness" : {"baseColorFactor" : [1, 1, 1, 1], "baseColorTexture" : {"index" : 0, "texCoord" : 0}, "metallicFactor" : 0, "roughnessFactor" : 1}, "emissiveFactor" : [0, 0, 0], "alphaMode" : "OPAQUE", "doubleSided" : true}, {"name" : "palette", "pbrMetallicRoughness" : {"baseColorFactor" : [1, 1, 1, 1], "baseColorTexture" : {"index" : 0, "texCoord" : 0}, "metallicFactor" : 0, "roughnessFactor" : 1}, "emissiveFactor" : [0, 0, 0], "alphaMode" : "OPAQUE", "doubleSided" : true}, {"name" : "palette", "pbrMetallicRoughness" : {"baseColorFactor" : [1, 1, 1, 1], "baseColorTexture" : {"index" : 0, "texCoord" : 0}, "metallicFactor" : 0, "roughnessFactor" : 1}, "emissiveFactor" : [0, 0, 0], "alphaMode" : "OPAQUE", "doubleSided" : true}], "meshes" : [{"primitives" : [{"attributes" : {"POSITION" : 1, "NORMAL" : 2, "TEXCOORD_0" : 3}, "indices" : 0, "material" : 0, "mode" : 4}]}, {"primitives" : [{"attributes" : {"POSITION" : 5, "NORMAL" : 6, "TEXCOORD_0" : 7}, "indices" : 4, "material" : 1, "mode" : 4}]}, {"primitives" : [{"attributes" : {"POSITION" : 9, "NORMAL" : 10, "TEXCOORD_0" : 11}, "indices" : 8, "material" : 2, "mode" : 4}]}, {"primitives" : [{"attributes" : {"POSITION" : 13, "NORMAL" : 14, "TEXCOORD_0" : 15}, "indices" : 12, "material" : 3, "mode" : 4}]}, {"primitives" : [{"attributes" : {"POSITION" : 17, "NORMAL" : 18, "TEXCOORD_0" : 19}, "indices" : 16, "material" : 4, "mode" : 4}]}, {"primitives" : [{"attributes" : {"POSITION" : 21, "NORMAL" : 22, "TEXCOORD_0" : 23}, "indices" : 20, "material" : 5, "mode" : 4}]}], "nodes" : [{"matrix" : [0.9999999999999716, -1.0048592410634785E-14, 2.384185809894346E-07, 0, -2.384185809894329E-07, -1.3435887069590535E-07, 0.9999999657714369, 0, 3.014577553783846E-14, -0.9999999657714653, -1.3435887069590535E-07, 0, 2.3711695718020565E-08, -0.8047083616256714, -0.09945406019687653, 1], "mesh" : 0, "name" : "HR_avatar_head"}, {"children" : [0], "matrix" : [0.9999999999999716, 1.8263097604316256E-15, -2.384185791015625E-07, 0, 0, 1, 7.660098333417518E-09, 0, 2.384185791015625E-07, -7.6600983334173E-09, 0.9999999999999716, 0, 0, 0.4965816140174866, -3.849086382956557E-09, 1], "name" : "neck"}, {"matrix" : [0.9999999999999886, -7.703697739675028E-15, 1.5099578916743617E-07, 0, 1.5099578916743532E-07, 2.0281592016946348E-07, -0.9999999657714455, 0, -1.7752289303276866E-14, 0.9999999657714568, 2.0281592016946348E-07, 0, 0.2039712518453598, 0.3081267476081848, 0.09945410490036011, 1], "mesh" : 1, "name" : "HR_avatar_rightfeet"}, {"children" : [2], "matrix" : [0.9999999999999886, 2.4617300658893793E-14, 1.5099580252808664E-07, 0, -2.46172989648279E-14, -1.0000000000000115, 3.26066015077231E-07, 0, 1.5099580252808664E-07, -3.26066015077231E-07, -1, 0, -0.203971266746521, 0, 1.6653345369377348E-16, 1], "name" : "rightFeet"}, {"matrix" : [1.1920928244535389E-07, -7.105427357601002E-15, -1, 0, -0.9999999999999929, 1.1920928244535389E-07, -1.1920928955078125E-07, 0, 1.1920928955078125E-07, 1, 0, 0, 0.09945405274629593, 0.6811444032358863, -0.40083011984825134, 1], "mesh" : 2, "name" : "HR_avatar_rightarm"}, {"children" : [4], "matrix" : [2.0281591450732606E-07, -1.2223601805292015E-07, -0.9999999657714495, 0, -9.042541261284654E-08, -0.99999987193829, 1.2223599552250254E-07, 0, -0.9999999657714528, 9.042539739517065E-08, -1.343588678093255E-07, 0, -0.40083009004592896, 0.3730175197124481, -2.3354257194796446E-08, 1], "name" : "rightArm"}, {"matrix" : [0.9999999999999886, -7.703697739675028E-15, 1.5099578916743617E-07, 0, 1.5099578916743532E-07, 2.0281592016946348E-07, -0.9999999657714455, 0, -1.7752289303276866E-14, 0.9999999657714568, 2.0281592016946348E-07, 0, -0.2039712816476822, 0.3081267476081848, 0.09945404529571533, 1], "mesh" : 3, "name" : "HR_avatar_leftfeet"}, {"children" : [6], "matrix" : [0.9999999999999886, 2.4617300658893793E-14, 1.5099580252808664E-07, 0, -2.46172989648279E-14, -1.0000000000000115, 3.26066015077231E-07, 0, 1.5099580252808664E-07, -3.26066015077231E-07, -1, 0, 0.203971266746521, 3.552713678800501E-15, 1.66532289023471E-16, 1], "name" : "leftFeet"}, {"matrix" : [1.1920928244535389E-07, 7.105427357601002E-15, 1, 0, 0.9999999999999929, 1.1920928244535389E-07, -1.1920928955078125E-07, 0, -1.1920928955078125E-07, 1, 0, 0, -0.09945405274629593, 0.6811444032358863, -0.40083011984825134, 1], "mesh" : 4, "name" : "HR_avatar_leftarm"}, {"children" : [8], "matrix" : [2.0281591450732606E-07, 1.2223601805292015E-07, 0.9999999657714495, 0, 9.042541261284654E-08, -0.99999987193829, 1.2223599552250254E-07, 0, 0.9999999657714528, 9.042539739517065E-08, -1.343588678093255E-07, 0, 0.40083009004592896, 0.3730175197124481, -2.3354257194796446E-08, 1], "name" : "leftArm"}, {"matrix" : [1, 0, 0, 0, 0, -1.3435885648505064E-07, 0.9999999657714511, 0, 0, -0.9999999657714511, -1.3435885648505064E-07, 0, 0, -0.3081267178058624, -0.09945407509803772, 1], "mesh" : 5, "name" : "HR_avatar_body"}, {"children" : [1, 3, 5, 7, 9, 10], "matrix" : [1, 0, 0, 0, 0, -1.3435885648505064E-07, -1.0000001343588565, 0, 0, 1.0000001343588565, -1.3435885648505064E-07, 0, 0, 0.09945407509803772, -4.347275872618184E-09, 1], "name" : "pelvis"}, {"children" : [11], "matrix" : [1, 0, 0, 0, 0, -1.3435885648505064E-07, 0.9999999657714511, 0, 0, -0.9999999657714511, -1.3435885648505064E-07, 0, 0, 0.3081267774105072, 0, 1], "name" : "Amature"}], "samplers" : [{"magFilter" : 9729, "minFilter" : 9987, "wrapS" : 10497, "wrapT" : 10497}], "scene" : 0, "scenes" : [{"nodes" : [12]}], "textures" : [{"sampler" : 0, "source" : 0}]}