<svg width="25" height="25" viewBox="0 0 25 25" fill="none" xmlns="http://www.w3.org/2000/svg">
<path d="M16.0859 6.57344V6.27344C16.0859 4.06344 14.2959 2.27344 12.0859 2.27344C9.87594 2.27344 8.08594 4.06344 8.08594 6.27344V11.2734" stroke="#999999" stroke-opacity="0.5" stroke-width="1.5" stroke-linecap="round" stroke-linejoin="round"/>
<path d="M9.125 14.4634C9.855 15.2734 10.915 15.7734 12.085 15.7734C14.295 15.7734 16.085 13.9834 16.085 11.7734V11.2734" stroke="#999999" stroke-opacity="0.5" stroke-width="1.5" stroke-linecap="round" stroke-linejoin="round"/>
<path d="M6.86719 17.2238C8.23719 18.4938 10.0672 19.2738 12.0872 19.2738C16.3072 19.2738 19.7372 15.8438 19.7372 11.6238V9.92383" stroke="#999999" stroke-opacity="0.5" stroke-width="1.5" stroke-linecap="round" stroke-linejoin="round"/>
<path d="M4.4375 9.92383V11.6238C4.4375 12.6838 4.6475 13.6838 5.0375 14.6038" stroke="#999999" stroke-opacity="0.5" stroke-width="1.5" stroke-linecap="round" stroke-linejoin="round"/>
<path d="M20.1556 3.11328L4.01562 19.2633" stroke="#999999" stroke-opacity="0.5" stroke-width="1.5" stroke-linecap="round" stroke-linejoin="round"/>
<path d="M11.0859 3.27344V6.27344" stroke="#999999" stroke-opacity="0.5" stroke-width="1.5" stroke-linecap="round" stroke-linejoin="round"/>
<path d="M12.0859 19.2734V22.2734" stroke="#999999" stroke-opacity="0.5" stroke-width="1.5" stroke-linecap="round" stroke-linejoin="round"/>
</svg>
