<svg width="23" height="24" viewBox="0 0 23 24" fill="none" xmlns="http://www.w3.org/2000/svg">
<path d="M11.4987 15.5C13.5245 15.5 15.1654 13.71 15.1654 11.5V6C15.1654 3.79 13.5245 2 11.4987 2C9.47286 2 7.83203 3.79 7.83203 6V11.5C7.83203 13.71 9.47286 15.5 11.4987 15.5Z" stroke="#292D32" stroke-width="1.5" stroke-linecap="round" stroke-linejoin="round"/>
<path d="M4.48828 9.65039V11.3504C4.48828 15.5704 7.63245 19.0004 11.5008 19.0004C15.3691 19.0004 18.5133 15.5704 18.5133 11.3504V9.65039" stroke="#292D32" stroke-width="1.5" stroke-linecap="round" stroke-linejoin="round"/>
<path d="M10.2266 6.42914C11.0516 6.09914 11.9499 6.09914 12.7749 6.42914" stroke="#292D32" stroke-width="1.5" stroke-linecap="round" stroke-linejoin="round"/>
<path d="M10.7656 8.55031C11.2515 8.41031 11.7556 8.41031 12.2415 8.55031" stroke="#292D32" stroke-width="1.5" stroke-linecap="round" stroke-linejoin="round"/>
<path d="M11.5 19V22" stroke="#292D32" stroke-width="1.5" stroke-linecap="round" stroke-linejoin="round"/>
</svg>
